HIERARCHY
ROOT Hips
{
	OFFSET 0.000000 0.000000 0.000000
	CHANNELS 6 Xposition Yposition Zposition Zrotation Yrotation Xrotation 
	JOINT LHipJoint
	{
		OFFSET 0.000000 0.000000 0.000000
		CHANNELS 3 Zrotation Yrotation Xrotation
		JOINT LeftUpLeg
		{
			OFFSET 1.363060 -1.794630 0.839290
			CHANNELS 3 Zrotation Yrotation Xrotation
			JOINT LeftLeg
			{
				OFFSET 2.448110 -6.726130 0.000000
				CHANNELS 3 Zrotation Yrotation Xrotation
				JOINT LeftFoot
				{
					OFFSET 2.562200 -7.039590 0.000000
					CHANNELS 3 Zrotation Yrotation Xrotation
					JOINT LeftToeBase
					{
						OFFSET 0.157640 -0.433110 2.322550
						CHANNELS 3 Zrotation Yrotation Xrotation
						End Site
						{
							OFFSET 0.000000 0.000000 0.000000
						}
					}
				}
			}
		}
	}
	JOINT RHipJoint
	{
		OFFSET 0.000000 0.000000 0.000000
		CHANNELS 3 Zrotation Yrotation Xrotation
		JOINT RightUpLeg
		{
			OFFSET -1.305520 -1.794630 0.839290
			CHANNELS 3 Zrotation Yrotation Xrotation
			JOINT RightLeg
			{
				OFFSET -2.542530 -6.985550 0.000000
				CHANNELS 3 Zrotation Yrotation Xrotation
				JOINT RightFoot
				{
					OFFSET -2.568260 -7.056230 0.000000
					CHANNELS 3 Zrotation Yrotation Xrotation
					JOINT RightToeBase
					{
						OFFSET -0.164730 -0.452590 2.363150
						CHANNELS 3 Zrotation Yrotation Xrotation
						End Site
						{
							OFFSET 0.000000 0.000000 0.000000
						}
					}
				}
			}
		}
	}
	JOINT LowerBack
	{
		OFFSET 0.000000 0.000000 0.000000
		CHANNELS 3 Zrotation Yrotation Xrotation
		JOINT Spine
		{
			OFFSET 0.028270 2.035590 -0.193380
			CHANNELS 3 Zrotation Yrotation Xrotation
			JOINT Spine1
			{
				OFFSET 0.056720 2.048850 -0.042750
				CHANNELS 3 Zrotation Yrotation Xrotation
				JOINT Neck
				{
					OFFSET 0.000000 0.000000 0.000000
					CHANNELS 3 Zrotation Yrotation Xrotation
					JOINT Neck1
					{
						OFFSET -0.054170 1.746240 0.172020
						CHANNELS 3 Zrotation Yrotation Xrotation
						JOINT Head
						{
							OFFSET 0.104070 1.761360 -0.123970
							CHANNELS 3 Zrotation Yrotation Xrotation
							End Site
							{
								OFFSET 0.000000 0.000000 0.000000
							}
						}
					}
				}
				JOINT LeftShoulder
				{
					OFFSET 0.000000 0.000000 0.000000
					CHANNELS 3 Zrotation Yrotation Xrotation
					JOINT LeftArm
					{
						OFFSET 3.362410 1.200890 -0.311210
						CHANNELS 3 Zrotation Yrotation Xrotation
						JOINT LeftForeArm
						{
							OFFSET 4.983000 -0.000000 -0.000000
							CHANNELS 3 Zrotation Yrotation Xrotation
							JOINT LeftHand
							{
								OFFSET 3.483560 -0.000000 -0.000000
								CHANNELS 3 Zrotation Yrotation Xrotation
								JOINT LeftFingerBase
								{
									OFFSET 0.000000 0.000000 0.000000
									CHANNELS 3 Zrotation Yrotation Xrotation
									JOINT LeftHandIndex1
									{
										OFFSET 0.715260 -0.000000 -0.000000
										CHANNELS 3 Zrotation Yrotation Xrotation
										End Site
										{
											OFFSET 0.000000 0.000000 0.000000
										}
									}
								}
								JOINT LThumb
								{
									OFFSET 0.000000 0.000000 0.000000
									CHANNELS 3 Zrotation Yrotation Xrotation
									End Site
									{
										OFFSET 0.000000 0.000000 0.000000
									}
								}
							}
						}
					}
				}
				JOINT RightShoulder
				{
					OFFSET 0.000000 0.000000 0.000000
					CHANNELS 3 Zrotation Yrotation Xrotation
					JOINT RightArm
					{
						OFFSET -3.136600 1.374050 -0.404650
						CHANNELS 3 Zrotation Yrotation Xrotation
						JOINT RightForeArm
						{
							OFFSET -5.241900 -0.000000 -0.000000
							CHANNELS 3 Zrotation Yrotation Xrotation
							JOINT RightHand
							{
								OFFSET -3.444170 -0.000000 -0.000000
								CHANNELS 3 Zrotation Yrotation Xrotation
								JOINT RightFingerBase
								{
									OFFSET 0.000000 0.000000 0.000000
									CHANNELS 3 Zrotation Yrotation Xrotation
									JOINT RightHandIndex1
									{
										OFFSET -0.622530 -0.000000 -0.000000
										CHANNELS 3 Zrotation Yrotation Xrotation
										End Site
										{
											OFFSET 0.000000 0.000000 0.000000
										}
									}
								}
								JOINT RThumb
								{
									OFFSET 0.000000 0.000000 0.000000
									CHANNELS 3 Zrotation Yrotation Xrotation
									End Site
									{
										OFFSET 0.000000 0.000000 0.000000
									}
								}
							}
						}
					}
				}
			}
		}
	}
}
MOTION
Frames: 8
Frame Time: 0.008333
3.060174 16.393549 0.263686 3.775268 44.274898 17.149541 -8.887825 -0.403978 0.134807 -2.141267 9.231257 -40.108415 -1.897699 1.179550 24.055999 0.606897 3.164488 9.144584 1.025200 -0.000001 -46.671300 12.370248 -1.770030 0.313824 -0.254822 6.146394 -11.410075 -0.427604 -3.570542 53.653991 -0.886326 -3.034021 -9.397148 0.081400 -0.000001 -51.861700 -6.628516 0.834501 -0.722312 -1.948136 1.217847 -3.032980 -5.210029 1.116907 0.735339 13.178907 -4.532903 -4.192742 -1.770125 -0.180327 0.846979 0.000000 0.000000 0.000000 -8.020313 12.183013 2.260582 -75.232808 26.939201 21.443047 -3.515365 -29.198664 -0.026776 -13.366628 6.719185 -0.805332 0.027278 -0.123514 0.000000 0.000000 0.000000 0.000000 0.000000 0.000000 0.000000 10.479172 0.912137 0.037657 65.187915 34.444351 38.036377 0.959582 74.733587 0.039851 8.614590 4.575525 0.372315 -0.088182 -0.309955 -0.000000 0.000000 0.000000 0.000000 0.000000 0.000000 0.000000 
3.203364 16.398839 0.299597 4.044512 42.864365 17.171583 -8.852965 -0.348209 -0.096003 -2.643767 9.741974 -39.823915 -1.878801 1.257906 25.659025 0.754046 4.328607 7.812449 1.256400 -0.000000 -46.601300 12.568347 -1.607441 0.254948 -0.837089 5.795134 -13.087084 -0.707206 -3.738554 56.633259 -1.400876 -6.276733 -10.414447 0.236400 0.000000 -42.055000 -6.722631 0.763283 -0.369616 -1.970611 1.158483 -2.996814 -5.242015 1.058985 0.634625 13.136409 -4.400489 -4.132897 -1.833383 -0.185229 0.856420 0.000000 0.000000 0.000000 -8.222632 11.759392 2.281603 -74.471601 25.348604 21.707525 -3.527753 -28.941759 -0.025386 -13.119198 6.629448 -0.778775 0.021321 -0.116856 0.000000 0.000000 0.000000 0.000000 0.000000 0.000000 0.000000 10.674133 1.039393 0.046664 65.998938 33.482554 38.135467 1.037669 73.434457 0.039157 8.597396 4.467440 0.362646 -0.084645 -0.302501 -0.000000 0.000000 0.000000 0.000000 0.000000 0.000000 0.000000 
3.342691 16.412831 0.332452 4.243862 41.483216 17.119126 -8.828097 -0.300963 -0.295802 -2.994338 9.995561 -39.277275 -1.847962 1.303590 26.950054 0.920111 5.593129 6.335610 1.450400 0.000000 -46.859800 12.725443 -1.428008 0.173284 -1.279147 5.487094 -14.668621 -0.932690 -3.892919 59.244644 -1.889841 -9.199014 -11.581264 0.486500 0.000001 -32.261400 -6.726365 0.695451 0.025820 -1.973811 1.097034 -2.950379 -5.267698 0.999698 0.536848 13.067446 -4.279596 -4.073165 -1.897213 -0.190063 0.865242 0.000000 0.000000 0.000000 -8.435276 11.296681 2.306595 -73.637540 23.625708 21.827716 -3.556277 -28.490025 -0.024024 -12.792030 6.539424 -0.747806 0.013497 -0.109965 0.000000 0.000000 0.000000 0.000000 0.000000 0.000000 0.000000 10.841008 1.137803 0.051026 66.805745 32.459535 38.112951 1.119176 72.007069 0.038306 8.576755 4.368523 0.353573 -0.081258 -0.294384 0.000000 0.000000 0.000000 0.000000 0.000000 0.000000 0.000000 
3.479423 16.434691 0.362762 4.375380 40.135343 16.994815 -8.817620 -0.260919 -0.465302 -3.205263 10.021396 -38.479697 -1.805214 1.319602 27.921836 1.103073 6.923283 4.832526 1.595600 -0.000000 -47.316300 12.839443 -1.243814 0.072538 -1.586662 5.215324 -16.140618 -1.111379 -4.031258 61.438927 -2.314365 -11.645000 -12.666068 0.790600 -0.000000 -24.341599 -6.639046 0.633196 0.453748 -1.957802 1.035502 -2.894945 -5.287318 0.940965 0.445500 12.977161 -4.173399 -4.015984 -1.961254 -0.194774 0.872969 0.000000 0.000000 0.000000 -8.643724 10.799276 2.334316 -72.745712 21.801208 21.793220 -3.601206 -27.844559 -0.022741 -12.393839 6.460560 -0.714428 0.003988 -0.103000 0.000000 0.000000 0.000000 0.000000 0.000000 0.000000 0.000000 10.985169 1.201378 0.054189 67.576462 31.382366 37.959834 1.202587 70.472312 0.037328 8.558559 4.284779 0.345695 -0.078124 -0.285697 0.000000 0.000000 0.000000 0.000000 0.000000 0.000000 0.000000 
3.614719 16.463272 0.391349 4.440137 38.823622 16.803199 -8.825455 -0.226272 -0.606091 -3.292839 9.866428 -37.459681 -1.751134 1.310811 28.581914 1.297778 8.279922 3.412192 1.692100 0.000000 -47.844400 12.909243 -1.066001 -0.043153 -1.761824 4.967908 -17.501418 -1.246713 -4.151604 63.215432 -2.640384 -13.482088 -13.539354 1.084299 -0.000000 -19.019700 -6.462622 0.577906 0.900893 -1.923232 0.975318 -2.832549 -5.301597 0.884086 0.363461 12.871786 -4.085110 -3.962729 -2.024973 -0.199316 0.879466 0.000000 0.000000 0.000000 -8.830607 10.270149 2.363057 -71.812181 19.913841 21.593513 -3.662231 -27.019704 -0.021597 -11.940444 6.402926 -0.680646 -0.006930 -0.096101 0.000000 0.000000 0.000000 0.000000 0.000000 0.000000 0.000000 11.112025 1.224740 0.059420 68.285673 30.260338 37.675766 1.286909 68.849557 0.036247 8.547298 4.219362 0.339513 -0.075252 -0.276489 0.000000 0.000000 0.000000 0.000000 0.000000 0.000000 0.000000 
3.749276 16.497171 0.419490 4.445913 37.550189 16.553737 -8.853226 -0.193744 -0.721440 -3.281402 9.588201 -36.254453 -1.687556 1.283015 28.949329 1.496174 9.620881 2.163764 1.750500 0.000001 -48.315100 12.936926 -0.902899 -0.171586 -1.812332 4.719100 -18.761714 -1.335851 -4.253963 64.604585 -2.843610 -14.603553 -14.222605 1.326200 -0.000001 -15.719899 -6.208052 0.528243 1.354678 -1.872425 0.915839 -2.763640 -5.311059 0.828331 0.299573 12.760619 -4.018577 -3.920031 -2.087551 -0.203540 0.883001 0.000000 0.000000 0.000000 -8.967029 9.751039 2.391822 -70.847111 17.959882 21.274610 -3.738191 -26.019680 -0.020621 -11.453654 6.369542 -0.647861 -0.018969 -0.089251 0.000000 0.000000 0.000000 0.000000 0.000000 0.000000 0.000000 11.229919 1.204360 0.066055 68.916700 29.108060 37.264623 1.371374 67.158361 0.035091 8.549031 4.173848 0.335325 -0.072681 -0.266783 0.000000 0.000000 0.000000 0.000000 0.000000 0.000000 0.000000 
3.883549 16.535026 0.448559 4.399886 36.316576 16.260019 -8.902444 -0.160284 -0.814382 -3.194610 9.250843 -34.913062 -1.617031 1.242293 29.052484 1.688320 10.900798 1.154924 1.788500 -0.000000 -48.677500 12.925200 -0.761026 -0.306174 -1.745682 4.449550 -19.940885 -1.379466 -4.337488 65.633455 -2.912849 -14.965599 -14.701386 1.477000 0.000000 -14.203600 -5.885813 0.483788 1.796737 -1.807945 0.857233 -2.693649 -5.318461 0.773574 0.246544 12.649737 -3.973215 -3.879593 -2.148823 -0.207598 0.886278 0.000000 0.000000 0.000000 -9.047197 9.198860 2.417490 -69.862892 16.039743 20.771971 -3.828262 -24.916184 -0.019891 -10.961661 6.371489 -0.618580 -0.031725 -0.082675 0.000000 0.000000 0.000000 0.000000 0.000000 0.000000 0.000000 11.343759 1.138235 0.079129 69.461397 27.927064 36.736876 1.456327 65.407778 0.033864 8.559890 4.145708 0.332834 -0.070181 -0.256604 0.000000 0.000000 0.000000 0.000000 0.000000 0.000000 0.000000 
4.017518 16.575493 0.480051 4.316010 35.121454 15.941524 -8.971106 -0.122006 -0.890557 -3.061184 8.918733 -33.484969 -1.544133 1.194349 28.926554 1.863729 12.073308 0.418120 1.824200 -0.000000 -48.882900 12.880756 -0.642445 -0.439801 -1.580078 4.144369 -21.062673 -1.380283 -4.402158 66.331580 -2.848146 -14.577029 -14.959219 1.511700 -0.000000 -14.205600 -5.516311 0.439728 2.212411 -1.733929 0.795920 -2.622431 -5.324678 0.716168 0.216614 12.549715 -3.951667 -3.851488 -2.207849 -0.211281 0.886510 0.000000 0.000000 0.000000 -9.044351 8.685734 2.439274 -68.855166 14.116198 20.184239 -3.930147 -23.723398 -0.019406 -10.493006 6.400412 -0.593204 -0.044941 -0.076229 0.000000 0.000000 0.000000 0.000000 0.000000 0.000000 0.000000 11.463740 1.026468 0.093768 69.918862 26.736912 36.103542 1.541653 63.609797 0.032585 8.583675 4.131576 0.331739 -0.067753 -0.245920 0.000000 0.000000 0.000000 0.000000 0.000000 0.000000 0.000000 
